<?xml version="1.0" encoding="utf-8"?>
<!-- Generator: Adobe Illustrator 21.0.0, SVG Export Plug-In . SVG Version: 6.00 Build 0)  -->
<svg version="1.1" id="图层_1" xmlns="http://www.w3.org/2000/svg" xmlns:xlink="http://www.w3.org/1999/xlink" x="0px" y="0px"
	 viewBox="0 0 36 36" style="enable-background:new 0 0 36 36;" xml:space="preserve">
<style type="text/css">
	.st0{fill:#FFFFFF;}
</style>
<title>未标题-1</title>
<path class="st0" d="M34.7,25l-3.5-1.3L27.9,25l3,1.1l-12.4,4.6L6.1,26.1l3-1.1l-3.3-1.3L2.3,25c-0.6,0.2-0.9,0.9-0.7,1.5
	c0.1,0.3,0.4,0.6,0.7,0.7l15.8,6c0.3,0.1,0.6,0.1,0.9,0l15.8-6c0.6-0.2,0.9-0.9,0.7-1.5C35.3,25.4,35.1,25.1,34.7,25L34.7,25z
	 M34.7,17.9l-3.5-1.3l-3.4,1.2l3,1.1l-12.4,4.7L6.1,19l3-1.1l-3.3-1.3l-3.5,1.3c-0.6,0.2-0.9,0.9-0.7,1.5c0.1,0.3,0.4,0.6,0.7,0.7
	l15.8,6c0.3,0.1,0.6,0.1,0.9,0l15.8-6c0.6-0.2,0.9-0.9,0.7-1.5C35.3,18.2,35.1,18,34.7,17.9L34.7,17.9z M2.3,12.9l15.8,6
	c0.3,0.1,0.6,0.1,0.9,0l15.8-6c0.6-0.2,0.9-0.9,0.7-1.5c-0.1-0.3-0.4-0.6-0.7-0.7l-15.8-6c-0.3-0.1-0.6-0.1-0.9,0l-15.8,6
	c-0.6,0.2-0.9,0.9-0.7,1.5C1.7,12.5,1.9,12.8,2.3,12.9z M15.2,10.9l3-3.5c0.2-0.1,0.4-0.2,0.6-0.2l2.4,0.4c0.2,0,0.3,0.2,0.2,0.3
	l-2,2.1c-0.1,0.1,0,0.3,0.2,0.3l2.8,0.5c0.2,0,0.3,0.2,0.1,0.3l-5.2,3.3c-0.6,0.4-0.9,0.3-0.6-0.3l1.1-2.2c0.1-0.1-0.1-0.3-0.3-0.3
	l-2.2-0.4C15.1,11.2,15,11.1,15.2,10.9L15.2,10.9z"/>
</svg>
